<?xml version="1.0" encoding="iso-8859-1"?>
<!-- Generator: Adobe Illustrator 21.0.0, SVG Export Plug-In . SVG Version: 6.00 Build 0)  -->
<svg version="1.1" id="Layer_1" xmlns="http://www.w3.org/2000/svg" xmlns:xlink="http://www.w3.org/1999/xlink" x="0px" y="0px"
	 viewBox="0 0 100.355 100.352" style="enable-background:new 0 0 100.355 100.352;" xml:space="preserve">
<g>
	<path d="M73.104,34.695c0.662-1.009,0.912-2.324,0.687-3.635c-0.239-1.394-0.97-2.584-2.058-3.352
		c-2.262-1.601-5.57-1.13-7.081,1.003L22.154,88.828l8.458,5.983l42.397-59.972L73.104,34.695z M29.894,90.629l-3.56-2.518
		l29.409-41.602l3.559,2.517L29.894,90.629z M70.569,33.089l-9.535,13.488l-3.559-2.517l9.518-13.464l0.106-0.149
		c0.501-0.707,1.905-0.993,2.902-0.287c0.585,0.413,0.772,1.059,0.833,1.408C70.932,32.138,70.83,32.721,70.569,33.089z"/>
	<path d="M42.29,19.027c2.433-0.416,4.883,0.136,6.901,1.562c2.017,1.425,3.358,3.55,3.775,5.983l0.571-0.098
		c0.014,0.095,0.018,0.188,0.034,0.283l2.957-0.509c-0.864-5.022,2.522-9.812,7.549-10.677l-0.002-0.011
		c0.093-0.014,0.186-0.02,0.279-0.036l-0.508-2.957c-2.431,0.418-4.883-0.137-6.9-1.563s-3.358-3.552-3.775-5.985l-0.57,0.098
		c-0.014-0.094-0.018-0.187-0.034-0.28L49.61,5.345c0.418,2.434-0.137,4.885-1.563,6.902s-3.552,3.357-5.987,3.774l0.003,0.017
		c-0.094,0.014-0.188,0.018-0.282,0.035L42.29,19.027z M50.496,13.978c0.778-1.101,1.349-2.302,1.726-3.556
		c0.805,1.161,1.804,2.192,2.992,3.032c0.925,0.654,1.922,1.161,2.96,1.533c-2.026,1.566-3.514,3.738-4.253,6.193
		c-0.806-1.165-1.808-2.199-2.999-3.041c-0.922-0.651-1.915-1.155-2.949-1.527C48.928,15.874,49.779,14.991,50.496,13.978z"/>
	<path d="M86.924,68.99l-0.507-2.957c-2.149,0.371-4.31-0.122-6.089-1.38c-1.779-1.258-2.961-3.134-3.33-5.283l-0.515,0.088
		c-0.013-0.084-0.016-0.168-0.03-0.252l-2.957,0.508c0.761,4.434-2.227,8.66-6.661,9.421l0.002,0.013
		c-0.084,0.012-0.167,0.016-0.25,0.03l0.507,2.957c4.44-0.758,8.662,2.226,9.422,6.657l0.514-0.088
		c0.013,0.085,0.016,0.169,0.03,0.254l2.957-0.508c-0.762-4.43,2.225-8.656,6.658-9.419l-0.001-0.008
		C86.757,69.01,86.84,69.005,86.924,68.99z M77.463,73.585c-1.27-1.725-3.012-3.047-5.003-3.814
		c1.662-1.347,2.912-3.148,3.587-5.181c0.702,0.956,1.553,1.808,2.549,2.513c0.767,0.543,1.589,0.976,2.443,1.305
		C79.381,69.755,78.135,71.555,77.463,73.585z"/>
	<path d="M22.187,47.264c1.02-1.444,2.541-2.403,4.282-2.701l-0.001-0.008c0.071-0.01,0.141-0.015,0.211-0.027l-0.507-2.957
		c-3.596,0.618-7.021-1.806-7.638-5.4L18.1,36.245c-0.011-0.072-0.014-0.144-0.026-0.216l-2.956,0.509
		c0.3,1.742-0.097,3.497-1.117,4.94s-2.541,2.403-4.283,2.702l0.002,0.01c-0.071,0.01-0.141,0.013-0.211,0.025l0.507,2.957
		c3.597-0.617,7.022,1.807,7.64,5.401l0.43-0.074c0.01,0.071,0.014,0.141,0.026,0.212l2.957-0.507
		C20.769,50.461,21.167,48.707,22.187,47.264z M14.945,44.874c0.557-0.492,1.067-1.043,1.506-1.665
		c0.471-0.667,0.84-1.384,1.125-2.127c0.981,1.212,2.242,2.166,3.667,2.785c-0.557,0.492-1.067,1.043-1.507,1.665
		c-0.471,0.667-0.84,1.382-1.124,2.125C17.631,46.447,16.37,45.492,14.945,44.874z"/>
</g>
</svg>
