<?xml version="1.0" encoding="iso-8859-1"?>
<!-- Generator: Adobe Illustrator 21.0.0, SVG Export Plug-In . SVG Version: 6.00 Build 0)  -->
<svg version="1.1" id="Layer_1" xmlns="http://www.w3.org/2000/svg" xmlns:xlink="http://www.w3.org/1999/xlink" x="0px" y="0px"
	 viewBox="0 0 100.353 100.353" style="enable-background:new 0 0 100.353 100.353;" xml:space="preserve">
<g>
	<path style="fill:#231F20;" d="M70.658,19.948v-7.139h-39v7.139H17.163l0.056,1.554c0.008,0.229,0.225,5.673,2.227,11.975
		c2.662,8.38,7.265,14.265,13.317,17.055c2.017,6.692,6.63,11.961,12.422,14.146v0.081c0,6.893-5.212,12.292-11.866,12.292h-1.5
		V87.19h38.84V77.051h-1.5c-6.77,0-12.278-5.505-12.288-12.275c5.966-2.142,10.718-7.546,12.735-14.425
		c5.867-2.858,10.338-8.668,12.946-16.874c2.003-6.301,2.222-11.746,2.23-11.975l0.057-1.555L70.658,19.948L70.658,19.948z
		 M20.341,22.948h11.317v20.028c0,1.25,0.09,2.476,0.256,3.671C22.917,40.824,20.805,27.5,20.341,22.948z M67.658,79.978v4.212
		h-32.84v-4.212c7.368-0.728,12.988-6.775,13.333-14.473c0.98,0.178,1.984,0.271,3.006,0.271c0.933,0,1.85-0.082,2.749-0.231
		C54.294,73.112,60.188,79.247,67.658,79.978z M67.658,42.976c0,10.918-7.402,19.8-16.5,19.8s-16.5-8.882-16.5-19.8V15.809h33
		V42.976z M70.437,46.415c0.146-1.122,0.222-2.27,0.222-3.439V22.948h11.003C81.207,27.438,79.154,40.47,70.437,46.415z"/>
	<path style="fill:#231F20;" d="M43.188,39.208l-1.167,6.811c-0.15,0.866,0.195,1.729,0.901,2.252
		c0.408,0.302,0.888,0.456,1.372,0.456c0.354,0,0.711-0.083,1.042-0.25l6.278-3.175l5.944,3.126
		c0.782,0.413,1.714,0.347,2.432-0.174c0.719-0.521,1.072-1.388,0.922-2.261l-1.161-6.784l4.93-4.807
		c0.633-0.62,0.855-1.528,0.579-2.371c-0.275-0.841-0.991-1.44-1.861-1.564l-6.811-0.99l-3.05-6.184
		c-0.397-0.791-1.186-1.28-2.081-1.276c-0.882,0.004-1.671,0.497-2.06,1.287l-3.045,6.173l-6.806,0.989
		c-0.88,0.125-1.597,0.728-1.872,1.573c-0.274,0.845-0.048,1.752,0.585,2.364L43.188,39.208z M48.345,32.218l3.125-6.336
		l3.125,6.336l6.987,1.015l-5.053,4.927l1.191,6.961l-6.079-3.196l-6.432,3.253l1.203-7.019l-5.054-4.927L48.345,32.218z"/>
</g>
</svg>
