<?xml version="1.0" encoding="iso-8859-1"?>
<!-- Generator: Adobe Illustrator 21.0.0, SVG Export Plug-In . SVG Version: 6.00 Build 0)  -->
<svg version="1.1" id="Layer_1" xmlns="http://www.w3.org/2000/svg" xmlns:xlink="http://www.w3.org/1999/xlink" x="0px" y="0px"
	 viewBox="0 0 100 100" style="enable-background:new 0 0 100 100;" xml:space="preserve">
<g>
	<path style="fill:#231F20;" d="M50,53.623c-19.072,0-34.588,15.516-34.588,34.587v1.5h69.177v-1.5
		C84.588,69.138,69.072,53.623,50,53.623z M18.447,86.709C19.233,69.986,33.085,56.622,50,56.622
		c16.916,0,30.767,13.364,31.553,30.087H18.447z"/>
	<path style="fill:#231F20;" d="M49.419,50.148c10.991,0,19.933-8.94,19.933-19.93c0-10.988-8.942-19.928-19.933-19.928
		c-10.986,0-19.924,8.94-19.924,19.928C29.495,41.208,38.433,50.148,49.419,50.148z M49.419,13.291
		c9.337,0,16.933,7.594,16.933,16.928c0,9.335-7.596,16.93-16.933,16.93c-9.332,0-16.924-7.595-16.924-16.93
		C32.495,20.884,40.087,13.291,49.419,13.291z"/>
</g>
</svg>
